<svg width="100" height="100" viewBox="0 0 100 100" fill="none" xmlns="http://www.w3.org/2000/svg">
<path d="M49.9989 86.2039C51.9033 86.2039 53.4471 84.6601 53.4471 82.7558C53.4471 80.8514 51.9033 79.3076 49.9989 79.3076C48.0946 79.3076 46.5508 80.8514 46.5508 82.7558C46.5508 84.6601 48.0946 86.2039 49.9989 86.2039Z" fill="#FA9A0E"/>
<path d="M49.9953 75.8594C50.3608 75.8594 50.7125 75.9129 51.0625 75.9681L53.9348 74.244L51.9487 60.3428H48.0437L45.5938 77.4921C46.7903 76.4887 48.3126 75.8594 49.9953 75.8594Z" fill="#FA9A0E"/>
<path d="M60.3451 25.861V21.0956C60.3451 19.787 60.1693 18.4957 59.8245 17.2406H55.1729C51.5162 17.2406 48.3042 15.3286 46.4646 12.458L41.7579 14.12C40.5062 14.6183 39.6562 15.8768 39.6562 17.294V25.861C39.6562 31.5659 44.2957 36.2054 50.0007 36.2054C55.7057 36.2054 60.3451 31.5659 60.3451 25.861ZM55.1729 20.6887C56.1246 20.6887 56.897 21.4611 56.897 22.4128C56.897 23.3645 56.1246 24.1369 55.1729 24.1369C54.2212 24.1369 53.4488 23.3645 53.4488 22.4128C53.4488 21.4611 54.2212 20.6887 55.1729 20.6887ZM44.8285 20.6887C45.7802 20.6887 46.5525 21.4611 46.5525 22.4128C46.5525 23.3645 45.7802 24.1369 44.8285 24.1369C43.8768 24.1369 43.1044 23.3645 43.1044 22.4128C43.1044 21.4611 43.8768 20.6887 44.8285 20.6887ZM43.4682 28.7195L43.2872 28.3557L46.3715 26.8126L46.5525 27.1782C47.2094 28.4919 48.5301 29.3091 50.0007 29.3091C51.4713 29.3091 52.792 28.4919 53.4488 27.1782L53.6299 26.8144L56.7142 28.3574L56.5332 28.7212C55.2884 31.2108 52.7851 32.7573 50.0007 32.7573C47.2163 32.7573 44.713 31.2108 43.4682 28.7195Z" fill="#FA9A0E"/>
<path d="M54.9833 42.5728L54.0971 39.0298C52.8006 39.4349 51.4231 39.6539 49.9956 39.6539C48.568 39.6539 47.1905 39.4349 45.894 39.0315L45.0078 42.5745L49.9956 47.5605L54.9833 42.5728Z" fill="#FA9A0E"/>
<path d="M48.2713 89.6518C48.2713 89.5673 48.2558 89.4845 48.2506 89.4C46.4627 88.9294 44.9697 87.7656 44.0594 86.2036H41.375V93.0999H44.8231C46.7248 93.0999 48.2713 91.5534 48.2713 89.6518Z" fill="#FA9A0E"/>
<path d="M58.4086 45.0585L57.5069 44.9292L52.7812 49.6549L57.3018 52.3686L58.4086 45.0585Z" fill="#FA9A0E"/>
<path d="M41.5898 45.0585L42.6967 52.3686L47.2172 49.6549L42.4915 44.9292L41.5898 45.0585Z" fill="#FA9A0E"/>
<path d="M53.1176 53.8829L49.9953 52.0088L46.873 53.8829L47.8144 56.8948H52.1763L53.1176 53.8829Z" fill="#FA9A0E"/>
<path d="M80.1631 63.3612L81.6044 66.2438L88.0559 60.8682L82.5733 62.4336C81.7406 62.6733 80.9424 62.9974 80.1631 63.3612Z" fill="#FA9A0E"/>
<path d="M66.3644 46.2796C65.9299 46.1762 65.4937 46.0727 65.0507 46.0089L61.8163 45.5469L59.9336 57.9723L56.1579 55.7068L55.2045 58.7602L57.1406 72.32L63.049 68.7753C65.6317 67.2237 67.2351 64.3927 67.2351 61.3825V58.6188H70.6832V61.3825C70.6832 65.5961 68.4385 69.5615 64.8248 71.7321L54.7441 77.7802C56.0596 79.0353 56.8906 80.7956 56.8906 82.7558H67.2351V78.187C67.2351 72.8924 69.297 67.9116 73.0435 64.1651C74.3831 62.8255 75.9244 61.7135 77.5795 60.8101V56.7396C72.6952 55.9155 68.9591 51.6673 68.9591 46.5503H67.2351C66.9109 46.5503 66.623 46.4365 66.3644 46.2796Z" fill="#FA9A0E"/>
<path d="M89.6514 41.3776C89.6514 40.426 88.8772 39.6536 87.9273 39.6536H87.0997L82.7913 34.2693C81.1448 32.2125 78.6931 31.0332 76.0588 31.0332H71.8055C71.0038 32.9469 69.3176 37.5588 69.0107 43.1017H70.6865C71.6382 43.1017 72.4106 43.8724 72.4106 44.8258V46.5499C72.4106 47.1481 72.5106 47.7188 72.6554 48.2739H73.7278C75.4484 48.2739 76.9949 47.3171 77.7639 45.7792L80.8482 47.3223C79.6397 49.7394 77.3415 51.3324 74.7105 51.6549C75.9346 52.7565 77.5346 53.4462 79.3069 53.4462H84.4791V56.8943H81.031V59.3304C81.2293 59.2666 81.4189 59.1787 81.6189 59.1201L87.7325 57.3736L86.0998 45.9395L88.9376 43.1017C89.3979 42.6397 89.6514 42.0293 89.6514 41.3776ZM74.1347 39.6536C73.183 39.6536 72.4106 38.8812 72.4106 37.9295C72.4106 36.9778 73.183 36.2054 74.1347 36.2054C75.0864 36.2054 75.8588 36.9778 75.8588 37.9295C75.8588 38.8812 75.0864 39.6536 74.1347 39.6536Z" fill="#FA9A0E"/>
<path d="M17.4259 62.4336L11.9434 60.8682L18.3948 66.2456L19.8362 63.3612C19.0569 62.9974 18.2569 62.6715 17.4259 62.4336Z" fill="#FA9A0E"/>
<path d="M44.7862 58.7602L43.8328 55.7068L40.057 57.9723L38.1743 45.5469L34.94 46.0089C34.4969 46.0727 34.0607 46.1762 33.628 46.2796C33.3676 46.4365 33.0797 46.5503 32.7556 46.5503H31.0315C31.0315 51.6656 27.2954 55.9137 22.4111 56.7396V60.8101C24.068 61.7152 25.6076 62.8273 26.9472 64.1669C27.8316 65.0513 28.6144 66.0099 29.3074 67.0219V58.6188H32.7556V82.7558H41.3587L44.7862 58.7602Z" fill="#FA9A0E"/>
<path d="M6.89453 72.4111V74.1352C6.89453 78.7419 8.04104 82.3694 10.9806 87.0726C13.3391 90.8466 17.4045 93.1 21.8543 93.1H37.9279V86.2037H21.7526C20.4371 86.2037 19.2561 85.4727 18.6682 84.2986L13.9719 74.9076L17.0562 73.3645L21.7526 82.7556H29.3075V78.1868C29.3075 73.8111 27.6041 69.6974 24.5094 66.6027C23.9767 66.0717 23.4043 65.5855 22.8043 65.1338L19.5303 71.6801L9.23065 63.0977C7.79105 65.82 6.89453 69.2336 6.89453 72.4111Z" fill="#FA9A0E"/>
<path d="M97.736 30.3162L96.7239 28.9645C92.8379 23.7837 86.6502 20.689 80.1728 20.689H72.4145C71.4645 20.689 70.6904 21.4614 70.6904 22.413V25.1474C70.6904 26.037 70.9801 26.8784 71.4938 27.5853H76.0626C79.7487 27.5853 83.1848 29.2369 85.4864 32.1144L88.8208 36.2815C91.25 36.7056 93.1034 38.8279 93.1034 41.3779C93.1034 42.9485 92.4913 44.4277 91.3793 45.5398L89.7587 47.1587L90.2673 50.7137L96.0395 45.7018C98.5601 43.5433 99.9997 40.4124 99.9997 37.1039C99.9997 34.6712 99.1963 32.2609 97.736 30.3162Z" fill="#FA9A0E"/>
<path d="M49.9937 94.1655C48.7282 95.6137 46.8903 96.5482 44.8214 96.5482H32.7529V99.9963H67.2344V96.5482H55.1659C53.097 96.5482 51.2591 95.6137 49.9937 94.1655Z" fill="#FA9A0E"/>
<path d="M8.05483 88.9C7.63588 88.2311 7.25141 87.5759 6.89453 86.9346V99.9962H29.3075V96.548H21.8543C16.208 96.548 11.0495 93.6895 8.05483 88.9Z" fill="#FA9A0E"/>
<path d="M10.2393 47.1604L8.62037 45.5397C7.50834 44.4277 6.8963 42.9484 6.8963 41.3778C6.8963 38.8279 8.74967 36.7056 11.1789 36.2814L14.5133 32.1144C15.3718 31.042 16.4201 30.142 17.5821 29.4196C17.5511 29.3369 17.5097 29.261 17.4838 29.1783C16.9839 27.5507 17.2649 25.8491 18.2528 24.5129C19.2234 23.1974 20.7785 22.413 22.413 22.413H24.137V25.8611H22.413C21.8595 25.8611 21.3544 26.1163 21.0251 26.5628C20.8303 26.8249 20.5406 27.3852 20.7803 28.168C20.982 28.83 21.7475 29.3093 22.5974 29.3093C25.3473 29.3093 27.5852 27.0714 27.5852 24.3215C27.5852 21.3682 25.1818 18.9648 22.2285 18.9648H17.4304C12.334 18.9648 7.51179 21.1837 4.1964 25.0508C1.4896 28.2093 0 32.2368 0 36.3935V37.1038C0 40.4123 1.4396 43.5415 3.95158 45.6932L9.74447 50.6223L10.2393 47.1604Z" fill="#FA9A0E"/>
<path d="M78.1436 96.548H70.6904V99.9962H93.1034V86.9346C92.7465 87.5776 92.362 88.2311 91.9431 88.9017C88.9484 93.6895 83.7899 96.548 78.1436 96.548Z" fill="#FA9A0E"/>
<path d="M19.8914 32.0521C18.8587 32.6021 17.9363 33.3521 17.2036 34.2693L12.8934 39.6535H12.0659C11.1159 39.6535 10.3418 40.4259 10.3418 41.3776C10.3418 42.0293 10.5952 42.6396 11.0573 43.1017L13.8951 45.9395L12.2624 57.3719L18.3743 59.1166C18.576 59.1735 18.7656 59.2632 18.9639 59.327V56.8943H15.5157V53.4461H20.688C22.4603 53.4461 24.0603 52.7565 25.2843 51.6531C22.6534 51.3307 20.3552 49.7377 19.1466 47.3205L22.231 45.7775C22.9982 47.3171 24.5447 48.2739 26.2653 48.2739H27.3377C27.4825 47.7188 27.5825 47.1481 27.5825 46.5498V44.8258C27.5825 43.8724 28.3549 43.1017 29.3066 43.1017H30.979C30.66 37.7346 28.9152 33.4814 27.6463 31.0366C26.2343 32.1021 24.4964 32.7572 22.5948 32.7572C21.619 32.7572 20.6949 32.4952 19.8914 32.0521ZM25.8585 36.2054C26.8102 36.2054 27.5825 36.9778 27.5825 37.9295C27.5825 38.8812 26.8102 39.6535 25.8585 39.6535C24.9068 39.6535 24.1344 38.8812 24.1344 37.9295C24.1344 36.9778 24.9068 36.2054 25.8585 36.2054Z" fill="#FA9A0E"/>
<path d="M80.4642 71.6801L77.1902 65.1338C76.592 65.5855 76.0178 66.0717 75.4851 66.6027C72.3921 69.6974 70.6887 73.8111 70.6887 78.1868V82.7556H78.2436L82.94 73.3645L86.0244 74.9076L81.328 84.2986C80.7401 85.4727 79.5591 86.2037 78.2436 86.2037L62.0684 86.2089V93.1H78.1419C82.5917 93.1 86.6571 90.8466 89.0156 87.0726C91.9552 82.3694 93.1017 78.7419 93.1017 74.1352V72.4111C93.1017 69.2336 92.2052 65.82 90.7656 63.0977L80.4642 71.6801Z" fill="#FA9A0E"/>
<path d="M36.2011 25.8611V18.9648C34.2994 18.9648 32.7529 20.5113 32.7529 22.413C32.7529 24.3146 34.2994 25.8611 36.2011 25.8611Z" fill="#FA9A0E"/>
<path d="M63.6504 18.9648C63.7349 19.67 63.7918 20.3803 63.7918 21.0958V25.8611C65.6934 25.8611 67.2399 24.3146 67.2399 22.413C67.2399 20.5113 65.6934 18.9648 63.7918 18.9648H63.6504Z" fill="#FA9A0E"/>
<path d="M33.5943 16.0356C34.3994 15.7063 35.2787 15.5167 36.2011 15.5167H36.4459C36.9942 13.4443 38.4717 11.7168 40.5354 10.891L45.1076 9.27552C44.9283 8.51003 44.8214 7.71696 44.8214 6.8963H48.2696C48.2696 10.6996 51.3626 13.7926 55.1659 13.7926H60.3381C63.1897 13.7926 65.5103 11.472 65.5103 8.62037C65.5103 5.76875 63.1897 3.44815 60.3381 3.44815C57.4865 3.44815 55.1659 5.76875 55.1659 8.62037H51.7177C51.7177 5.59462 53.2918 2.94127 55.6555 1.40167C53.4453 0.498257 51.066 0 48.6799 0C44.3715 0 40.1768 1.51891 36.8666 4.2757L36.0683 4.9412C33.9615 6.69803 32.7529 9.27724 32.7529 12.0185C32.7529 13.0116 32.9115 13.9926 33.2253 14.9305L33.5943 16.0356Z" fill="#FA9A0E"/>
<path d="M55.1747 93.1001H58.6229V86.209H55.9368C55.0247 87.7675 53.5351 88.9296 51.749 89.3985C51.7421 89.4847 51.7266 89.5675 51.7266 89.652C51.7266 91.5536 53.2731 93.1001 55.1747 93.1001Z" fill="#FA9A0E"/>
</svg>
