<svg width="101" height="100" viewBox="0 0 101 100" fill="none" xmlns="http://www.w3.org/2000/svg">
<path d="M81.1224 50.763C80.5425 50.0044 79.4457 49.8508 78.6724 50.4197C78.301 50.693 78.0554 51.0999 77.99 51.551L77.0187 58.2292C76.9953 58.3151 76.9647 58.3988 76.9277 58.4799C78.7125 56.1549 80.1529 53.5937 81.2064 50.8729L81.1224 50.763Z" fill="#FA9A0E"/>
<path d="M75.2855 59.702C75.2031 59.702 75.1206 59.6969 75.0388 59.6866L64.6441 58.229C63.6873 58.0945 63.023 57.2247 63.1601 56.2861C63.1601 56.2859 63.1601 56.2859 63.1601 56.2857L64.1314 49.6074C64.2668 48.6686 63.6009 47.7999 62.6439 47.6671C62.1861 47.6035 61.721 47.7203 61.3507 47.992L55.8489 52.0384C55.0756 52.6073 53.9788 52.4536 53.3989 51.695L47.0991 43.4545C46.5192 42.6959 46.6759 41.62 47.4491 41.0511L52.9492 37.0046C53.7225 36.4358 53.8791 35.3598 53.2992 34.6012C53.0205 34.2368 52.6058 33.9958 52.146 33.9316L45.3387 32.9771C44.3819 32.8436 43.7165 31.9743 43.8528 31.0357C43.8528 31.035 43.853 31.0344 43.853 31.0337L45.3387 20.8379C45.4747 19.8992 46.3609 19.2464 47.3177 19.3801C47.3183 19.3801 47.319 19.3803 47.3196 19.3803L54.1269 20.3348C54.8271 20.4344 55.519 20.1078 55.8769 19.5091C56.2485 18.914 56.2067 18.1556 55.7719 17.6035L51.6507 12.2094C51.0709 11.4508 51.2275 10.3748 52.0007 9.80591L52.993 9.07629C51.3856 9.00011 49.7746 9.04238 48.1736 9.20333C30.8894 11.1394 18.4779 26.4549 20.4514 43.4114C21.5265 52.6487 26.7838 60.9201 34.7655 65.9322C37.6796 67.7047 39.4694 70.8142 39.5114 74.1778V81.1152C39.5114 83.9597 41.8618 86.2655 44.7612 86.2655H58.7608C61.6602 86.2655 64.0106 83.9597 64.0106 81.1152V74.3203C64.055 70.8777 65.8815 67.694 68.858 65.8704C71.6168 64.1145 74.0805 61.9484 76.1605 59.4497C75.8967 59.6082 75.5948 59.6954 75.2855 59.702ZM53.5109 81.1152H50.011V75.965H53.5109V81.1152ZM50.011 72.5314C50.0099 67.9923 47.1569 63.9235 42.8363 62.2995C30.2347 57.4655 24.0136 43.5251 28.941 31.1625C30.8489 26.3755 34.2709 22.3147 38.7046 19.576L40.5613 22.4808C30.7452 28.5403 27.795 41.259 33.9717 50.889C36.3647 54.62 39.9147 57.4996 44.0997 59.1046C49.7713 61.2327 53.5153 66.5742 53.5109 72.5314H50.011Z" fill="#FA9A0E"/>
<path d="M44.7607 94.8496V96.5664C44.7607 98.4628 46.3276 99.9999 48.2606 99.9999H55.2604C57.1935 99.9999 58.7603 98.4628 58.7603 96.5664V94.8496H44.7607Z" fill="#FA9A0E"/>
<path d="M33.8199 67.3812C32.783 66.7217 31.7845 66.0058 30.8292 65.2369C28.1874 70.2821 21.8771 72.2709 16.7345 69.6795C13.2341 67.9155 11.038 64.3747 11.0495 60.5141C11.0576 55.3237 14.9979 50.9485 20.2473 50.301C19.605 48.4062 19.1411 46.4574 18.8613 44.4795L18.5551 45.9078C18.1574 47.7635 16.3014 48.9515 14.4099 48.5613C13.9569 48.468 13.5273 48.2873 13.146 48.0298L9.50609 45.5782L6.31769 48.6993L8.82361 52.2736C9.92039 53.835 9.51922 55.9732 7.92764 57.0492C7.54593 57.3072 7.11588 57.4883 6.66243 57.5819L2.2998 58.4832V62.5622L6.66243 63.4635C8.5539 63.8543 9.76443 65.6753 9.36609 67.5309C9.2705 67.9764 9.08545 68.3988 8.82186 68.7735L6.31769 72.3289L9.50609 75.45L13.1425 72.9916C14.7341 71.9156 16.9136 72.3091 18.0104 73.8705C18.2733 74.245 18.4579 74.6669 18.5533 75.1118L19.4703 79.3985H23.6299L24.5469 75.1186C24.945 73.263 26.801 72.0752 28.6925 72.4658C29.146 72.5594 29.576 72.7405 29.9577 72.9984L33.5924 75.45L37.346 71.7675C36.7167 69.9529 35.472 68.4046 33.8199 67.3812Z" fill="#FA9A0E"/>
<path d="M58.7603 87.9824H44.7607V91.416H58.7603V87.9824Z" fill="#FA9A0E"/>
<path d="M95.4549 29.5971C92.5847 29.1945 90.5907 26.5852 91.001 23.7695C91.1981 22.4173 91.9346 21.1973 93.0487 20.378L97.1488 17.3599L92.9489 11.8663L88.8488 14.8827C86.5297 16.59 83.2389 16.1295 81.4988 13.8545C80.6643 12.7635 80.3049 11.392 80.4998 10.0414L81.2243 5.06275L74.2963 4.09277L73.5718 9.0714C73.1612 11.8871 70.5017 13.8434 67.6316 13.4408C66.2533 13.2474 65.0097 12.5249 64.1746 11.432L61.0981 7.4027L55.4983 11.5229L58.573 15.5453C60.3129 17.8207 59.8432 21.0488 57.5239 22.756C56.4094 23.5761 55.0085 23.9281 53.6294 23.7343L48.5545 23.0236L47.5605 29.822L52.6354 30.5327C55.5055 30.9355 57.4996 33.5445 57.0892 36.3603C56.8921 37.7124 56.1556 38.9324 55.0416 39.7517L50.9432 42.7698L55.1431 48.2635L59.2432 45.2471C61.5625 43.5402 64.8531 44.0009 66.5932 46.2763C67.4292 47.3697 67.788 48.7442 67.5905 50.097L66.866 55.0756L73.8098 56.0507L74.5342 51.0721C74.9448 48.2564 77.6043 46.3001 80.4744 46.7027C81.8527 46.8961 83.0963 47.6186 83.9315 48.7115L87.0079 52.7322L92.6077 48.612L89.5225 44.5827C87.7833 42.3069 88.2538 39.0788 90.5736 37.3725C91.6857 36.5545 93.083 36.2025 94.4591 36.3937L99.534 37.1045L100.523 30.3078L95.4549 29.5971ZM74.0478 40.3663C68.2489 40.3663 63.5481 35.7547 63.5481 30.0657C63.5481 24.3768 68.2489 19.7651 74.0478 19.7651C79.8466 19.7651 84.5474 24.3768 84.5474 30.0657C84.5407 35.7519 79.8438 40.3597 74.0478 40.3663Z" fill="#FA9A0E"/>
<path d="M97.2594 63.9478H85.0098V67.3813H97.2594V63.9478Z" fill="#FA9A0E"/>
<path d="M84.3821 72.9293L82.1396 75.5654L92.647 84.1394L94.8894 81.5032L84.3821 72.9293Z" fill="#FA9A0E"/>
<path d="M78.0097 77.6816H74.5098V89.699H78.0097V77.6816Z" fill="#FA9A0E"/>
<path d="M14.5862 26.2313L0.586914 29.6616L1.43587 32.9907L15.4351 29.5604L14.5862 26.2313Z" fill="#FA9A0E"/>
<path d="M5.5275 9.33412L3.49219 12.125L15.7475 20.6985L17.7828 17.9076L5.5275 9.33412Z" fill="#FA9A0E"/>
<path d="M21.8793 0.000427662L18.4883 0.849609L22.0728 14.5813L25.4639 13.7321L21.8793 0.000427662Z" fill="#FA9A0E"/>
</svg>
