<svg width="599" height="577" viewBox="0 0 599 577" fill="none" xmlns="http://www.w3.org/2000/svg">
<path fill-rule="evenodd" clip-rule="evenodd" d="M295.763 0.0117467C358.525 -0.481373 421.369 14.5196 471.946 50.9839C522.346 87.3213 552.888 142.429 573.605 200.329C594.76 259.449 607.966 322.6 590.723 382.931C573.043 444.787 532.424 499.279 477.966 534.949C424.831 569.754 359.571 579.287 295.763 576.135C234.49 573.107 176.298 552.633 126.422 517.581C76.2736 482.338 34.6328 435.774 14.5921 378.535C-5.67594 320.647 -4.17115 257.644 15.0201 199.404C34.2321 141.101 71.0298 89.6665 121.619 53.7364C172.147 17.8504 233.389 0.501827 295.763 0.0117467Z" fill="#145DA2"/>
</svg>
