<svg width="600" height="578" viewBox="0 0 600 578" fill="none" xmlns="http://www.w3.org/2000/svg">
<path fill-rule="evenodd" clip-rule="evenodd" d="M296.339 0.477567C359.1 -0.0155528 421.945 14.9854 472.521 51.4497C522.921 87.7871 553.463 142.894 574.181 200.795C595.335 259.915 608.541 323.066 591.298 383.396C573.618 445.253 532.999 499.744 478.542 535.415C425.406 570.22 360.147 579.753 296.339 576.6C235.065 573.573 176.873 553.099 126.997 518.047C76.8488 482.804 35.2079 436.239 15.1673 379.001C-5.10075 321.113 -3.59596 258.11 15.5953 199.87C34.8073 141.567 71.6049 90.1324 122.194 54.2022C172.722 18.3162 233.964 0.967647 296.339 0.477567Z" fill="#C4C4C4"/>
</svg>
