<svg width="581" height="606" viewBox="0 0 581 606" fill="none" xmlns="http://www.w3.org/2000/svg">
<path fill-rule="evenodd" clip-rule="evenodd" d="M235.229 8.10649C172.777 20.6648 113.888 49.4598 71.2369 96.7762C29.0836 143.541 7.1403 204.635 1.55275 267.345C-3.89189 328.452 11.915 388.306 40.4212 442.629C69.4645 497.976 108.437 549.084 164.206 577.309C221.072 606.09 287.179 612.571 349.458 599.036C410.771 585.711 464.459 550.065 505.986 503.03C546.632 456.994 572.886 399.965 579.159 338.875C585.339 278.688 567.782 220.107 540.586 166.061C512.416 110.08 477.519 55.0645 421.856 26.2712C364.948 -3.16598 298.042 -4.52448 235.229 8.10649Z" fill="#C4C4C4"/>
</svg>
