<svg width="576" height="603" viewBox="0 0 576 603" fill="none" xmlns="http://www.w3.org/2000/svg">
<path fill-rule="evenodd" clip-rule="evenodd" d="M289.603 0.196916C225.903 0.674146 162.619 17.7691 111.763 56.1308C61.5006 94.0451 28.361 149.864 10.9731 210.374C-5.96997 269.337 -1.81018 331.103 15.8678 389.849C33.8789 449.702 62.4436 507.278 111.842 545.575C162.212 584.624 225.887 603.535 289.603 602.066C352.331 600.619 411.808 575.81 461.507 537.512C510.152 500.028 546.752 449.017 564.505 390.228C581.996 332.309 575.876 271.459 559.432 213.234C542.399 152.924 518.577 92.2858 469.39 53.4515C419.104 13.7487 353.672 -0.283077 289.603 0.196916Z" fill="#FA9A0E"/>
</svg>
